<svg width="120" height="33" viewBox="0 0 120 33" fill="none" xmlns="http://www.w3.org/2000/svg">
<path d="M16.5 0C7.3913 0 0 7.39131 0 16.5C0 25.6087 7.3913 33 16.5 33C25.6087 33 33 25.6087 33 16.5C33 7.39131 25.6304 0 16.5 0ZM22.2391 21.4565C20.2174 24.913 15.3913 26 12.0652 23.6087C12.0652 23.6087 12.0652 23.3913 12.0217 23.0435C12.1087 23.1087 12.2174 23.1522 12.3478 23.2174C14.4348 24.1087 16.8478 23.3913 17.6957 21.3261C18.3696 19.6957 18.4565 12.913 17.9348 11.4348C17.413 9.91304 16.0652 9.23913 14.7174 9.52174C13.8913 9.69565 12.9783 10.3478 12.3913 11.1087C12.7174 10.1739 13.6739 8.86957 13.7826 8.78261C16.8913 6.28261 21 7.06522 22.6957 10.6304C24.413 14.2609 24.3261 17.9565 22.2609 21.4565H22.2391Z" fill="#A4DB08"/>
<path d="M44.6962 21.8933C44.6962 23.5733 44.6692 25.24 44.6962 26.8933C44.7097 27.64 45.0878 27.9333 46.0332 28.1733C46.2493 28.2267 46.4113 28.44 46.6004 28.5867C46.3708 28.72 46.1547 28.9733 45.9251 28.9733C44.156 29 42.3733 29 40.6042 28.9733C40.3881 28.9733 40.1045 28.8533 39.9829 28.6933C39.9154 28.6 40.0505 28.28 40.1855 28.12C40.9958 27.1333 40.9958 25.9467 40.9958 24.7867C41.0228 20.6267 41.0093 16.48 40.9958 12.32C40.9958 11.4533 39.3077 10.68 39.4428 10.6267C40.4556 10.2 41.482 9.81333 42.5084 9.41333C42.5219 9.41333 42.5489 9.41333 42.5759 9.41333C44.075 9.33333 44.8447 9.11999 44.6692 11.2667C44.6692 11.4133 44.7097 11.56 44.7232 11.68C45.2364 11.2 45.7091 10.72 46.2223 10.3067C48.6261 8.35999 51.8133 8.95999 53.1233 11.7467C54.4603 14.5733 54.3793 17.4667 52.7857 20.2C51.2191 22.8933 47.4782 23.7333 44.9123 21.88C44.8853 21.8533 44.8312 21.88 44.6827 21.88L44.6962 21.8933ZM49.3419 12.64C48.9503 11.4933 47.9509 11 46.9515 11.2C45.8981 11.4133 44.6962 12.68 44.6962 13.6267C44.6827 15.9867 44.6962 18.3467 44.6962 20.7067C44.6962 21.1067 44.8447 21.3067 45.2094 21.4667C46.7625 22.1333 48.5451 21.6 49.1798 20.0533C49.6795 18.8267 49.7335 13.7733 49.3554 12.6533L49.3419 12.64Z" fill="#010F35"/>
<path d="M103.618 22.0668C103.943 21.9334 104.037 21.8934 104.145 21.8534C105.131 21.5734 105.334 21.3468 105.334 20.3334C105.334 17.6134 105.334 14.8934 105.334 12.1734C105.334 11.5601 105.117 11.2668 104.442 11.3068C104.105 11.3201 103.767 11.1734 103.429 11.1068C103.672 10.8401 103.875 10.5201 104.159 10.3334C105.225 9.62676 106.454 9.37343 107.71 9.29343C108.561 9.2401 108.98 9.6401 108.993 10.4801C109.007 11.2801 108.993 12.0934 109.142 12.9734C109.236 12.8401 109.358 12.7201 109.439 12.5734C110.087 11.3201 111.006 10.3201 112.289 9.69343C114.895 8.41343 117.258 9.69343 117.407 12.5468C117.529 14.8801 117.447 17.2134 117.475 19.5468C117.475 19.9068 117.488 20.2668 117.529 20.6268C117.623 21.4134 118.015 21.6801 118.784 21.4934C118.879 21.4668 118.96 21.4401 119.041 21.4134C119.352 21.3334 119.662 21.2668 119.973 21.2001C119.77 21.4934 119.608 21.8401 119.338 22.0534C118.231 22.9201 116.934 23.2001 115.557 22.8934C114.706 22.7068 114.179 22.1334 114.004 21.2801C113.896 20.7734 113.842 20.2534 113.842 19.7468C113.828 17.7868 113.842 15.8401 113.842 13.8801C113.842 13.5068 113.801 13.1201 113.747 12.7468C113.531 11.3468 112.343 10.7868 111.222 11.6534C110.627 12.1068 110.128 12.8134 109.844 13.5068C108.885 15.9201 108.656 18.4134 109.399 20.9468C109.507 21.3068 109.736 21.6268 109.939 21.9468C110.209 22.3734 110.047 22.6268 109.615 22.6401C107.818 22.6668 106.022 22.6668 104.226 22.6401C104.051 22.6401 103.875 22.3468 103.605 22.0934L103.618 22.0668Z" fill="#010F35"/>
<path d="M62.4687 20.5066C62.1581 20.8666 61.9555 21.1066 61.7395 21.3466C60.524 22.8133 58.2957 23.3999 56.6346 22.6799C54.3928 21.7066 54.0146 18.5866 55.9593 17.1199C56.9722 16.3599 58.1336 16.0133 59.3761 15.9066C60.1864 15.8399 61.0102 15.8533 61.834 15.8799C62.2662 15.8799 62.4552 15.7599 62.4417 15.3066C62.4012 14.2799 62.4147 13.2399 62.3472 12.2133C62.2797 11.0399 61.5369 10.1999 60.6051 10.1066C59.079 9.97327 58.2012 11.4399 58.8899 12.9733C58.998 13.2133 59.1195 13.4399 59.2681 13.7199C58.4037 14.1733 57.5259 14.2933 56.6751 14.0133C55.4056 13.5999 55.122 11.7866 56.1349 10.6666C56.4455 10.3199 56.8507 9.99994 57.2693 9.8266C59.4706 8.93327 61.6854 8.89327 63.8733 9.89327C65.3858 10.5866 66.1016 11.8266 66.1016 13.4533C66.1151 15.6799 66.1016 17.9066 66.1016 20.1199C66.1016 21.4799 66.6958 21.8399 67.9518 21.2533C68.1408 21.1733 68.3569 21.1733 68.573 21.1333C68.4785 21.3333 68.4514 21.5999 68.2894 21.7333C67.1145 22.7866 65.7234 23.1733 64.1839 22.8266C63.306 22.6399 62.8604 21.9466 62.6308 21.1199C62.5903 20.9599 62.5498 20.7999 62.4687 20.4799V20.5066ZM61.807 17.1466C61.2803 17.1999 60.9157 17.2133 60.578 17.2799C59.6327 17.4933 58.7414 17.7866 58.1606 18.5733C57.4044 19.6133 57.9851 21.2133 59.1465 21.3066C60.3214 21.3999 61.1858 20.9466 61.4694 19.8933C61.699 19.0266 61.699 18.1199 61.807 17.1333V17.1466Z" fill="#010F35"/>
<path d="M85.1572 14.0534C85.3327 13.4934 85.5083 13.0134 85.6298 12.52C85.6839 12.3334 85.6569 12.12 85.6298 11.92C85.5893 11.4667 85.4273 10.9867 84.9276 10.9867C84.5629 10.9867 84.0092 11.2 83.8472 11.48C83.415 12.2267 83.0504 13.04 82.8478 13.88C82.3616 15.84 82.3346 17.84 82.5777 19.8267C82.6723 20.5334 83.0234 21.2267 83.3205 21.8934C83.5366 22.3734 83.469 22.6134 82.9288 22.6134C81.2002 22.6267 79.4716 22.6267 77.7429 22.6134C77.5674 22.6134 77.3918 22.3734 77.2297 22.24C77.3648 22.1067 77.4863 21.92 77.6619 21.8534C78.4722 21.5867 78.7288 21.28 78.7423 20.44C78.7423 17.68 78.7423 14.9067 78.7423 12.1467C78.7423 11.56 78.5262 11.2934 77.8915 11.32C77.5539 11.32 77.2027 11.1467 76.8651 11.0534C77.1217 10.7867 77.3243 10.4134 77.6214 10.2934C78.6748 9.9067 79.7417 9.53337 80.8356 9.32003C81.7404 9.1467 82.2266 9.6667 82.2536 10.6C82.2671 11.24 82.2536 11.8934 82.2536 12.5334C82.3076 12.5467 82.3751 12.56 82.4292 12.5734C82.5642 12.2267 82.6993 11.88 82.8343 11.52C83.5636 9.6667 85.0491 8.88003 86.8723 9.3867C88.2633 9.77337 89.0331 11.1067 88.682 12.5334C88.3579 13.8534 87.2234 14.5067 85.7379 14.2134C85.5353 14.1734 85.3462 14.12 85.1167 14.0534H85.1572Z" fill="#010F35"/>
<path d="M76.865 9.68005C76.784 11.0267 76.6355 11.1734 75.4065 11.1734C74.9473 11.1734 74.4882 11.1334 74.0425 11.2001C73.8534 11.2267 73.5698 11.4934 73.5698 11.6667C73.5428 14.6267 73.5428 17.6001 73.5698 20.5601C73.5698 21.2401 74.083 21.6667 74.7583 21.5067C75.285 21.3867 75.7711 21.0534 76.2843 20.8267C76.4194 20.7601 76.5949 20.7601 76.7435 20.7201C76.703 20.8667 76.7165 21.0534 76.6219 21.1734C75.5145 22.6267 73.3672 23.3334 71.6386 22.8267C70.4772 22.4934 69.8695 21.5734 69.8559 20.0401C69.8424 17.3467 69.8289 14.6534 69.8559 11.9601C69.8559 11.3334 69.6804 11.0801 69.0457 11.1601C68.8431 11.1867 68.627 11.2001 68.4379 11.1601C68.2218 11.1201 68.0328 11.0001 67.8302 10.9067C67.9653 10.6267 68.0463 10.3067 68.2489 10.0934C68.3974 9.93338 68.708 9.92005 68.9376 9.84005C70.4097 9.32005 71.2065 8.20005 71.7331 6.82672C71.9897 6.13338 72.5029 5.88005 73.2187 6.06672C73.3537 6.10672 73.5158 6.37338 73.5293 6.53338C73.5563 7.38672 73.5698 8.24005 73.5293 9.09338C73.5023 9.58672 73.6914 9.70672 74.164 9.69338C75.0419 9.66672 75.9332 9.69338 76.8515 9.69338L76.865 9.68005Z" fill="#010F35"/>
<path d="M102.484 14.8001C102.349 13.6401 101.917 12.5868 101.201 11.6668C99.9991 10.1201 98.3515 9.38679 96.4473 9.24012C94.192 9.06679 92.1122 9.50679 90.4646 11.2268C89.1411 12.6001 88.736 14.2801 88.736 16.2935C88.6955 18.1468 89.2762 19.9335 90.7887 21.3468C92.0447 22.5201 93.6248 22.9468 95.2859 22.9868C97.2576 23.0401 99.1213 22.6401 100.607 21.2001C102.444 19.4135 102.768 17.2001 102.471 14.8001H102.484ZM97.6763 20.4001C97.5412 20.6801 97.3792 20.9601 97.1901 21.2001C96.2042 22.4668 94.7592 22.4268 93.8679 21.0935C92.963 19.7468 92.828 18.2135 92.774 16.6535C92.774 16.4801 92.774 16.2935 92.774 16.1201C92.774 14.4268 92.9225 12.7601 93.8274 11.2535C94.192 10.6401 94.6782 10.1601 95.4615 10.0801C96.4743 9.97346 97.0686 10.5468 97.4467 11.3201C97.7978 12.0668 98.1084 12.8535 98.2435 13.6668C98.5946 15.9468 98.6756 18.2268 97.6763 20.4001Z" fill="#010F35"/>
</svg>
