<svg width="121" height="34" viewBox="0 0 121 34" fill="none" xmlns="http://www.w3.org/2000/svg">
<path d="M17.0555 0.672974C7.94685 0.672974 0.555542 8.06428 0.555542 17.173C0.555542 26.2817 7.94685 33.673 17.0555 33.673C26.1642 33.673 33.5555 26.2817 33.5555 17.173C33.5555 8.06428 26.186 0.672974 17.0555 0.672974ZM22.7947 22.1295C20.7729 25.586 15.9468 26.673 12.6208 24.2817C12.6208 24.2817 12.6208 24.0643 12.5773 23.7165C12.6642 23.7817 12.7729 23.8252 12.9034 23.8904C14.9903 24.7817 17.4034 24.0643 18.2512 21.9991C18.9251 20.3686 19.0121 13.586 18.4903 12.1078C17.9686 10.586 16.6208 9.91211 15.2729 10.1947C14.4468 10.3686 13.5338 11.0208 12.9468 11.7817C13.2729 10.8469 14.2295 9.54254 14.3382 9.45558C17.4468 6.95558 21.5555 7.73819 23.2512 11.3034C24.9686 14.9338 24.8816 18.6295 22.8164 22.1295H22.7947Z" fill="#A4DB08"/>
<path d="M45.2517 22.5663C45.2517 24.2463 45.2247 25.913 45.2517 27.5663C45.2652 28.313 45.6434 28.6063 46.5887 28.8463C46.8048 28.8996 46.9669 29.113 47.1559 29.2596C46.9263 29.393 46.7103 29.6463 46.4807 29.6463C44.7115 29.673 42.9289 29.673 41.1597 29.6463C40.9436 29.6463 40.66 29.5263 40.5385 29.3663C40.471 29.273 40.606 28.953 40.7411 28.793C41.5514 27.8063 41.5514 26.6196 41.5514 25.4596C41.5784 21.2996 41.5649 17.153 41.5514 12.993C41.5514 12.1263 39.8632 11.353 39.9983 11.2996C41.0112 10.873 42.0375 10.4863 43.0639 10.0863C43.0774 10.0863 43.1044 10.0863 43.1314 10.0863C44.6305 10.0063 45.4003 9.79297 45.2247 11.9396C45.2247 12.0863 45.2652 12.233 45.2787 12.353C45.7919 11.873 46.2646 11.393 46.7778 10.9796C49.1817 9.03297 52.3689 9.63297 53.6788 12.4196C55.0158 15.2463 54.9348 18.1396 53.3412 20.873C51.7746 23.5663 48.0338 24.4063 45.4678 22.553C45.4408 22.5263 45.3868 22.553 45.2382 22.553L45.2517 22.5663ZM49.8974 13.313C49.5058 12.1663 48.5064 11.673 47.5071 11.873C46.4537 12.0863 45.2517 13.353 45.2517 14.2996C45.2382 16.6596 45.2517 19.0196 45.2517 21.3796C45.2517 21.7796 45.4003 21.9796 45.7649 22.1396C47.318 22.8063 49.1007 22.273 49.7354 20.7263C50.2351 19.4996 50.2891 14.4463 49.911 13.3263L49.8974 13.313Z" fill="white"/>
<path d="M104.174 22.7397C104.498 22.6064 104.593 22.5664 104.701 22.5264C105.686 22.2464 105.889 22.0197 105.889 21.0064C105.889 18.2864 105.889 15.5664 105.889 12.8464C105.889 12.2331 105.673 11.9397 104.998 11.9797C104.66 11.9931 104.322 11.8464 103.985 11.7797C104.228 11.5131 104.431 11.1931 104.714 11.0064C105.781 10.2997 107.01 10.0464 108.266 9.9664C109.117 9.91307 109.535 10.3131 109.549 11.1531C109.562 11.9531 109.549 12.7664 109.697 13.6464C109.792 13.5131 109.914 13.3931 109.995 13.2464C110.643 11.9931 111.561 10.9931 112.844 10.3664C115.451 9.0864 117.814 10.3664 117.963 13.2197C118.084 15.5531 118.003 17.8864 118.03 20.2197C118.03 20.5797 118.044 20.9397 118.084 21.2997C118.179 22.0864 118.57 22.3531 119.34 22.1664C119.435 22.1397 119.516 22.1131 119.597 22.0864C119.907 22.0064 120.218 21.9397 120.528 21.8731C120.326 22.1664 120.164 22.5131 119.894 22.7264C118.786 23.5931 117.49 23.8731 116.112 23.5664C115.262 23.3797 114.735 22.8064 114.559 21.9531C114.451 21.4464 114.397 20.9264 114.397 20.4197C114.384 18.4597 114.397 16.5131 114.397 14.5531C114.397 14.1797 114.357 13.7931 114.303 13.4197C114.087 12.0197 112.898 11.4597 111.777 12.3264C111.183 12.7797 110.683 13.4864 110.4 14.1797C109.441 16.5931 109.211 19.0864 109.954 21.6197C110.062 21.9797 110.292 22.2997 110.494 22.6197C110.764 23.0464 110.602 23.2997 110.17 23.3131C108.374 23.3397 106.578 23.3397 104.782 23.3131C104.606 23.3131 104.431 23.0197 104.16 22.7664L104.174 22.7397Z" fill="white"/>
<path d="M63.0243 21.1797C62.7137 21.5397 62.5111 21.7797 62.295 22.0197C61.0796 23.4864 58.8512 24.073 57.1901 23.353C54.9483 22.3797 54.5702 19.2597 56.5149 17.793C57.5278 17.033 58.6892 16.6864 59.9316 16.5797C60.7419 16.513 61.5657 16.5264 62.3895 16.553C62.8217 16.553 63.0108 16.433 62.9973 15.9797C62.9568 14.953 62.9703 13.913 62.9027 12.8864C62.8352 11.713 62.0924 10.873 61.1606 10.7797C59.6345 10.6464 58.7567 12.113 59.4455 13.6464C59.5535 13.8864 59.675 14.113 59.8236 14.393C58.9593 14.8464 58.0815 14.9664 57.2306 14.6864C55.9612 14.273 55.6776 12.4597 56.6904 11.3397C57.0011 10.993 57.4062 10.673 57.8249 10.4997C60.0262 9.60637 62.241 9.56637 64.4288 10.5664C65.9414 11.2597 66.6571 12.4997 66.6571 14.1264C66.6706 16.353 66.6571 18.5797 66.6571 20.793C66.6571 22.153 67.2513 22.513 68.5073 21.9264C68.6964 21.8464 68.9125 21.8464 69.1285 21.8064C69.034 22.0064 69.007 22.273 68.8449 22.4064C67.67 23.4597 66.279 23.8464 64.7394 23.4997C63.8616 23.313 63.4159 22.6197 63.1863 21.793C63.1458 21.633 63.1053 21.473 63.0243 21.153V21.1797ZM62.3625 17.8197C61.8358 17.873 61.4712 17.8864 61.1336 17.953C60.1882 18.1664 59.2969 18.4597 58.7162 19.2464C57.9599 20.2864 58.5406 21.8864 59.7021 21.9797C60.877 22.073 61.7413 21.6197 62.0249 20.5664C62.2545 19.6997 62.2545 18.793 62.3625 17.8064V17.8197Z" fill="white"/>
<path d="M85.7127 14.7263C85.8883 14.1663 86.0638 13.6863 86.1854 13.193C86.2394 13.0063 86.2124 12.793 86.1854 12.593C86.1449 12.1397 85.9828 11.6597 85.4831 11.6597C85.1185 11.6597 84.5648 11.873 84.4027 12.153C83.9706 12.8997 83.6059 13.713 83.4034 14.553C82.9172 16.513 82.8902 18.513 83.1333 20.4997C83.2278 21.2063 83.5789 21.8997 83.876 22.5663C84.0921 23.0463 84.0246 23.2863 83.4844 23.2863C81.7558 23.2997 80.0271 23.2997 78.2985 23.2863C78.1229 23.2863 77.9473 23.0463 77.7853 22.913C77.9203 22.7797 78.0419 22.593 78.2174 22.5263C79.0277 22.2597 79.2843 21.953 79.2978 21.113C79.2978 18.353 79.2978 15.5797 79.2978 12.8197C79.2978 12.233 79.0818 11.9663 78.447 11.993C78.1094 11.993 77.7583 11.8197 77.4207 11.7263C77.6772 11.4597 77.8798 11.0863 78.1769 10.9663C79.2303 10.5797 80.2972 10.2063 81.3911 9.99301C82.296 9.81967 82.7821 10.3397 82.8091 11.273C82.8226 11.913 82.8091 12.5663 82.8091 13.2063C82.8632 13.2197 82.9307 13.233 82.9847 13.2463C83.1198 12.8997 83.2548 12.553 83.3899 12.193C84.1191 10.3397 85.6047 9.55301 87.4278 10.0597C88.8189 10.4463 89.5886 11.7797 89.2375 13.2063C88.9134 14.5263 87.779 15.1797 86.2934 14.8863C86.0909 14.8463 85.9018 14.793 85.6722 14.7263H85.7127Z" fill="white"/>
<path d="M77.4206 10.353C77.3396 11.6997 77.191 11.8464 75.962 11.8464C75.5029 11.8464 75.0437 11.8064 74.598 11.873C74.409 11.8997 74.1254 12.1664 74.1254 12.3397C74.0984 15.2997 74.0984 18.273 74.1254 21.233C74.1254 21.913 74.6386 22.3397 75.3138 22.1797C75.8405 22.0597 76.3267 21.7264 76.8399 21.4997C76.9749 21.433 77.1505 21.433 77.299 21.393C77.2585 21.5397 77.272 21.7264 77.1775 21.8464C76.0701 23.2997 73.9228 24.0064 72.1941 23.4997C71.0327 23.1664 70.425 22.2464 70.4115 20.713C70.398 18.0197 70.3845 15.3264 70.4115 12.633C70.4115 12.0064 70.2359 11.753 69.6012 11.833C69.3986 11.8597 69.1825 11.873 68.9935 11.833C68.7774 11.793 68.5883 11.673 68.3857 11.5797C68.5208 11.2997 68.6018 10.9797 68.8044 10.7664C68.953 10.6064 69.2636 10.593 69.4932 10.513C70.9652 9.99303 71.762 8.87303 72.2887 7.49969C72.5453 6.80636 73.0585 6.55303 73.7742 6.73969C73.9093 6.77969 74.0713 7.04636 74.0848 7.20636C74.1119 8.05969 74.1254 8.91303 74.0848 9.76636C74.0578 10.2597 74.2469 10.3797 74.7196 10.3664C75.5974 10.3397 76.4887 10.3664 77.4071 10.3664L77.4206 10.353Z" fill="white"/>
<path d="M103.04 15.473C102.905 14.313 102.472 13.2596 101.757 12.3396C100.555 10.793 98.9071 10.0596 97.0029 9.91298C94.7475 9.73964 92.6678 10.1796 91.0202 11.8996C89.6967 13.273 89.2915 14.953 89.2915 16.9663C89.251 18.8196 89.8317 20.6063 91.3443 22.0196C92.6002 23.193 94.1803 23.6196 95.8414 23.6596C97.8132 23.713 99.6769 23.313 101.162 21.873C102.999 20.0863 103.323 17.873 103.026 15.473H103.04ZM98.2318 21.073C98.0968 21.353 97.9347 21.633 97.7456 21.873C96.7598 23.1396 95.3147 23.0996 94.4234 21.7663C93.5186 20.4196 93.3835 18.8863 93.3295 17.3263C93.3295 17.153 93.3295 16.9663 93.3295 16.793C93.3295 15.0996 93.4781 13.433 94.3829 11.9263C94.7475 11.313 95.2337 10.833 96.017 10.753C97.0299 10.6463 97.6241 11.2196 98.0022 11.993C98.3534 12.7396 98.664 13.5263 98.799 14.3396C99.1502 16.6196 99.2312 18.8996 98.2318 21.073Z" fill="white"/>
</svg>
